<svg t="1678031902974" class="icon" viewBox="0 0 1024 1024" version="1.1" xmlns="http://www.w3.org/2000/svg" p-id="5140" width="200" height="200"><path d="M768 1024H256C114.9 1024 0 909.1 0 768V256C0 114.9 114.9 0 256 0h512c141.1 0 256 114.9 256 256v512c0 141.1-114.9 256-256 256zM256 93.1c-89.8 0-162.9 73.1-162.9 162.9v512c0 89.8 73.1 162.9 162.9 162.9h512c89.8 0 162.9-73.1 162.9-162.9V256c0-89.8-73.1-162.9-162.9-162.9H256z" fill="#8a8a8a" p-id="5141"></path><path d="M711.6 496.5c14.5 0 28.2 2.8 41.3 8.4 13.1 5.6 24.5 13.4 34.3 23.2 9.8 9.8 17.5 21.3 23.1 34.4 5.6 13.1 8.4 26.9 8.4 41.5 0 15-2.8 28.9-8.4 41.8-5.6 12.9-13.3 24.3-23.1 34.1s-21.2 17.6-34.3 23.2c-13.1 5.6-26.8 8.4-41.3 8.4-13.5 0-26.3-2.5-38.2-7.4-11.9-4.9-22.5-11.4-31.9-19.3v87.9c0 12.7-4.4 23.4-13.3 32.3-8.9 8.9-19.6 13.4-32.2 13.4H251c-12.6 0-23.4-4.5-32.6-13.4-9.1-8.9-13.6-19.7-13.6-32.3v-78c2.3-9.8 6.5-17.1 12.6-21.8 6.1-4.7 14.9-3.5 26.6 3.5 5.6 3.3 9.8 5.2 12.6 5.6 12.1 6.1 24.5 9.1 37.1 9.1 12.6 0 24.4-2.3 35.3-7 11-4.7 20.5-11.1 28.7-19.3 8.2-8.2 14.6-17.7 19.2-28.5 4.7-10.8 7-22.5 7-35.1s-2.3-24.5-7-35.5-11.1-20.6-19.2-28.8c-8.2-8.2-17.7-14.6-28.7-19.3-11-4.7-22.7-7-35.3-7-12.1 0-24 2.6-35.7 7.7-2.8 0.9-5.1 1.9-7 2.8-5.4 2.7-10.9 5.3-16.4 7.7-5.4 2.3-10.2 3.3-14.4 2.8-4.2-0.5-7.7-2.8-10.5-7s-4.4-11.2-4.9-21.1v-73.8c0-12.7 4.5-23.6 13.6-32.7 9.1-9.1 20-13.7 32.6-13.7h109.2c-7.5-9.4-13.4-19.8-17.9-31.3-4.4-11.5-6.6-23.8-6.6-36.9 0-15.5 2.9-29.9 8.7-43.2 5.8-13.4 13.7-25 23.5-34.8 9.8-9.8 21.3-17.7 34.7-23.6 13.3-5.9 27.4-8.8 42.3-8.8 14.9 0 29.1 2.9 42.4 8.8 13.3 5.9 24.9 13.7 34.7 23.6 9.8 9.8 17.6 21.4 23.4 34.8 5.8 13.4 8.8 27.8 8.8 43.2 0 26.2-8.2 49-24.5 68.2h66.5c12.6 0 23.3 4.6 32.2 13.7 8.9 9.1 13.3 20 13.3 32.7v93.5c9.3-8 20-14.4 31.9-19.3 11.8-4.9 24.5-7.4 38-7.4" fill="#8a8a8a" p-id="5142"></path></svg>
